<mxfile host="app.diagrams.net" modified="2020-09-10T18:00:10.520Z" agent="5.0 (Windows NT 10.0; Win64; x64) AppleWebKit/537.36 (KHTML, like Gecko) Chrome/85.0.4183.102 Safari/537.36" etag="Jv6gbVBc1SJB5vp1p0tA" version="13.6.9" type="github">
  <diagram id="FudMSDanZmLzdqfW6y7g" name="Page-1">
    <mxGraphModel dx="3670" dy="2349" grid="1" gridSize="10" guides="1" tooltips="1" connect="1" arrows="1" fold="1" page="1" pageScale="1" pageWidth="850" pageHeight="1100" math="0" shadow="0">
      <root>
        <mxCell id="0" />
        <mxCell id="1" parent="0" />
        <mxCell id="1BFwYRv7wavieyGJnszA-1" value="" style="strokeWidth=1;shadow=0;dashed=0;align=center;html=1;shape=mxgraph.mockup.containers.browserWindow;rSize=0;strokeColor=#666666;strokeColor2=#008cff;strokeColor3=#c4c4c4;mainText=,;recursiveResize=0;" parent="1" vertex="1">
          <mxGeometry x="-560" y="-410" width="1100" height="1050" as="geometry" />
        </mxCell>
        <mxCell id="1BFwYRv7wavieyGJnszA-2" value="&lt;font style=&quot;font-size: 10px&quot;&gt;Буй Хонг Тьен М33091&lt;/font&gt;" style="strokeWidth=1;shadow=0;dashed=0;align=center;html=1;shape=mxgraph.mockup.containers.anchor;fontSize=17;fontColor=#666666;align=left;" parent="1BFwYRv7wavieyGJnszA-1" vertex="1">
          <mxGeometry x="60" y="12" width="110" height="26" as="geometry" />
        </mxCell>
        <mxCell id="1BFwYRv7wavieyGJnszA-3" value="https://" style="strokeWidth=1;shadow=0;dashed=0;align=center;html=1;shape=mxgraph.mockup.containers.anchor;rSize=0;fontSize=17;fontColor=#666666;align=left;" parent="1BFwYRv7wavieyGJnszA-1" vertex="1">
          <mxGeometry x="130" y="60" width="250" height="26" as="geometry" />
        </mxCell>
        <mxCell id="1BFwYRv7wavieyGJnszA-6" value="" style="whiteSpace=wrap;html=1;shadow=0;dashed=0;fontSize=10;align=left;fontColor=#522845;fillColor=#e7cee1;strokeColor=#522845;" parent="1BFwYRv7wavieyGJnszA-1" vertex="1">
          <mxGeometry x="1.2" y="110" width="1098.8" height="100" as="geometry" />
        </mxCell>
        <mxCell id="1BFwYRv7wavieyGJnszA-7" value="" style="html=1;verticalLabelPosition=bottom;align=center;labelBackgroundColor=#ffffff;verticalAlign=top;strokeWidth=2;shadow=0;dashed=0;shape=mxgraph.ios7.icons.user;strokeColor=#522845;" parent="1BFwYRv7wavieyGJnszA-1" vertex="1">
          <mxGeometry x="50" y="117" width="90" height="90" as="geometry" />
        </mxCell>
        <mxCell id="1BFwYRv7wavieyGJnszA-8" value="&lt;font style=&quot;font-size: 29px ; background-color: rgb(231 , 206 , 225)&quot; color=&quot;#522845&quot;&gt;Full Name&lt;/font&gt;" style="text;html=1;strokeColor=none;fillColor=none;align=center;verticalAlign=middle;whiteSpace=wrap;rounded=0;" parent="1BFwYRv7wavieyGJnszA-1" vertex="1">
          <mxGeometry x="160" y="140" width="270" height="40" as="geometry" />
        </mxCell>
        <mxCell id="1BFwYRv7wavieyGJnszA-13" value="" style="shape=image;html=1;verticalAlign=top;verticalLabelPosition=bottom;labelBackgroundColor=#ffffff;imageAspect=0;aspect=fixed;image=https://cdn4.iconfinder.com/data/icons/ionicons/512/icon-social-github-128.png" parent="1BFwYRv7wavieyGJnszA-1" vertex="1">
          <mxGeometry x="900" y="152" width="20" height="20" as="geometry" />
        </mxCell>
        <mxCell id="1BFwYRv7wavieyGJnszA-14" value="&lt;span style=&quot;background-color: rgb(255 , 255 , 255)&quot;&gt;Link&lt;/span&gt;" style="text;html=1;align=center;verticalAlign=middle;whiteSpace=wrap;rounded=0;" parent="1BFwYRv7wavieyGJnszA-1" vertex="1">
          <mxGeometry x="690" y="121" width="95" height="20" as="geometry" />
        </mxCell>
        <mxCell id="1BFwYRv7wavieyGJnszA-27" value="&lt;span style=&quot;background-color: rgb(255 , 255 , 255)&quot;&gt;Link&lt;/span&gt;" style="text;html=1;align=center;verticalAlign=middle;whiteSpace=wrap;rounded=0;" parent="1BFwYRv7wavieyGJnszA-1" vertex="1">
          <mxGeometry x="690" y="152" width="95" height="20" as="geometry" />
        </mxCell>
        <mxCell id="1BFwYRv7wavieyGJnszA-28" value="&lt;span style=&quot;background-color: rgb(255 , 255 , 255)&quot;&gt;Link&lt;/span&gt;" style="text;html=1;align=center;verticalAlign=middle;whiteSpace=wrap;rounded=0;" parent="1BFwYRv7wavieyGJnszA-1" vertex="1">
          <mxGeometry x="690" y="183.5" width="95" height="20" as="geometry" />
        </mxCell>
        <mxCell id="1BFwYRv7wavieyGJnszA-29" value="&lt;span style=&quot;background-color: rgb(255 , 255 , 255)&quot;&gt;Link&lt;/span&gt;" style="text;html=1;align=center;verticalAlign=middle;whiteSpace=wrap;rounded=0;" parent="1BFwYRv7wavieyGJnszA-1" vertex="1">
          <mxGeometry x="930" y="117" width="95" height="20" as="geometry" />
        </mxCell>
        <mxCell id="1BFwYRv7wavieyGJnszA-31" value="&lt;span style=&quot;background-color: rgb(255 , 255 , 255)&quot;&gt;Link&lt;/span&gt;" style="text;html=1;align=center;verticalAlign=middle;whiteSpace=wrap;rounded=0;" parent="1BFwYRv7wavieyGJnszA-1" vertex="1">
          <mxGeometry x="930" y="148" width="95" height="20" as="geometry" />
        </mxCell>
        <mxCell id="1BFwYRv7wavieyGJnszA-34" value="" style="rounded=1;whiteSpace=wrap;html=1;strokeWidth=3;labelBorderColor=#522845;strokeColor=#522845;fillColor=#f5eaf2;" parent="1BFwYRv7wavieyGJnszA-1" vertex="1">
          <mxGeometry x="20" y="230" width="270" height="260" as="geometry" />
        </mxCell>
        <mxCell id="1BFwYRv7wavieyGJnszA-35" value="&lt;font size=&quot;1&quot; color=&quot;#522845&quot;&gt;&lt;b style=&quot;font-size: 20px&quot;&gt;Summary&lt;/b&gt;&lt;/font&gt;" style="text;html=1;strokeColor=none;fillColor=none;align=center;verticalAlign=middle;whiteSpace=wrap;rounded=0;" parent="1BFwYRv7wavieyGJnszA-1" vertex="1">
          <mxGeometry x="80" y="250" width="40" height="20" as="geometry" />
        </mxCell>
        <mxCell id="1BFwYRv7wavieyGJnszA-36" value="&lt;font style=&quot;font-size: 17px ; background-color: rgb(231 , 206 , 225)&quot; color=&quot;#522845&quot;&gt;Text&lt;/font&gt;" style="text;html=1;strokeColor=none;fillColor=none;align=center;verticalAlign=middle;whiteSpace=wrap;rounded=0;" parent="1BFwYRv7wavieyGJnszA-1" vertex="1">
          <mxGeometry x="90" y="320" width="100" height="80" as="geometry" />
        </mxCell>
        <mxCell id="1BFwYRv7wavieyGJnszA-37" value="" style="rounded=1;whiteSpace=wrap;html=1;strokeWidth=3;strokeColor=#522845;fillColor=#F5EAF2;" parent="1BFwYRv7wavieyGJnszA-1" vertex="1">
          <mxGeometry x="20" y="510" width="270" height="240" as="geometry" />
        </mxCell>
        <mxCell id="1BFwYRv7wavieyGJnszA-38" value="&lt;font style=&quot;font-size: 20px&quot; color=&quot;#522845&quot;&gt;&lt;b&gt;Education&lt;/b&gt;&lt;/font&gt;" style="text;html=1;strokeColor=none;fillColor=none;align=center;verticalAlign=middle;whiteSpace=wrap;rounded=0;" parent="1BFwYRv7wavieyGJnszA-1" vertex="1">
          <mxGeometry x="50" y="530" width="100" height="20" as="geometry" />
        </mxCell>
        <mxCell id="1BFwYRv7wavieyGJnszA-39" value="&lt;font style=&quot;font-size: 17px ; background-color: rgb(245 , 234 , 242)&quot; color=&quot;#522845&quot;&gt;Text&lt;/font&gt;" style="text;html=1;strokeColor=none;fillColor=none;align=center;verticalAlign=middle;whiteSpace=wrap;rounded=0;" parent="1BFwYRv7wavieyGJnszA-1" vertex="1">
          <mxGeometry x="100" y="590" width="100" height="80" as="geometry" />
        </mxCell>
        <mxCell id="1BFwYRv7wavieyGJnszA-44" value="" style="shape=image;html=1;verticalAlign=top;verticalLabelPosition=bottom;labelBackgroundColor=#ffffff;imageAspect=0;aspect=fixed;image=https://cdn4.iconfinder.com/data/icons/logos-and-brands-1/512/147_Gmail_logo_logos-128.png;strokeColor=#007FFF;fillColor=#007FFF;" parent="1BFwYRv7wavieyGJnszA-1" vertex="1">
          <mxGeometry x="651" y="120" width="23.5" height="23.5" as="geometry" />
        </mxCell>
        <mxCell id="1BFwYRv7wavieyGJnszA-45" value="" style="shape=mxgraph.signs.tech.telephone_3;html=1;pointerEvents=1;fillColor=#000000;strokeColor=none;verticalLabelPosition=bottom;verticalAlign=top;align=center;" parent="1BFwYRv7wavieyGJnszA-1" vertex="1">
          <mxGeometry x="654.12" y="152" width="17.25" height="23.5" as="geometry" />
        </mxCell>
        <mxCell id="1BFwYRv7wavieyGJnszA-46" value="" style="shape=image;html=1;verticalAlign=top;verticalLabelPosition=bottom;labelBackgroundColor=#ffffff;imageAspect=0;aspect=fixed;image=https://cdn1.iconfinder.com/data/icons/black-socicons/512/vk-128.png;strokeColor=#007FFF;fillColor=#007FFF;" parent="1BFwYRv7wavieyGJnszA-1" vertex="1">
          <mxGeometry x="656" y="184" width="19" height="19" as="geometry" />
        </mxCell>
        <mxCell id="1BFwYRv7wavieyGJnszA-47" value="" style="shape=image;html=1;verticalAlign=top;verticalLabelPosition=bottom;labelBackgroundColor=#ffffff;imageAspect=0;aspect=fixed;image=https://cdn3.iconfinder.com/data/icons/wpzoom-developer-icon-set/500/01-128.png;strokeColor=#007FFF;fillColor=#007FFF;" parent="1BFwYRv7wavieyGJnszA-1" vertex="1">
          <mxGeometry x="898" y="121" width="24" height="24" as="geometry" />
        </mxCell>
        <mxCell id="1BFwYRv7wavieyGJnszA-49" value="" style="rounded=1;whiteSpace=wrap;html=1;strokeWidth=3;strokeColor=#522845;fillColor=#F5EAF2;" parent="1BFwYRv7wavieyGJnszA-1" vertex="1">
          <mxGeometry x="360" y="230" width="710" height="140" as="geometry" />
        </mxCell>
        <mxCell id="1BFwYRv7wavieyGJnszA-50" value="&lt;font size=&quot;1&quot; color=&quot;#522845&quot;&gt;&lt;b style=&quot;font-size: 20px&quot;&gt;Project&lt;/b&gt;&lt;/font&gt;" style="text;html=1;strokeColor=none;fillColor=none;align=center;verticalAlign=middle;whiteSpace=wrap;rounded=0;" parent="1BFwYRv7wavieyGJnszA-1" vertex="1">
          <mxGeometry x="390" y="250" width="80" height="20" as="geometry" />
        </mxCell>
        <mxCell id="1BFwYRv7wavieyGJnszA-51" value="&lt;font size=&quot;1&quot; color=&quot;#522845&quot;&gt;&lt;b style=&quot;font-size: 16px&quot;&gt;Time&lt;/b&gt;&lt;/font&gt;" style="text;html=1;strokeColor=none;fillColor=none;align=center;verticalAlign=middle;whiteSpace=wrap;rounded=0;" parent="1BFwYRv7wavieyGJnszA-1" vertex="1">
          <mxGeometry x="985" y="250" width="40" height="20" as="geometry" />
        </mxCell>
        <mxCell id="1BFwYRv7wavieyGJnszA-52" value="&lt;font style=&quot;font-size: 17px ; background-color: rgb(245 , 234 , 242)&quot; color=&quot;#522845&quot;&gt;Text&lt;/font&gt;" style="text;html=1;strokeColor=none;fillColor=none;align=center;verticalAlign=middle;whiteSpace=wrap;rounded=0;" parent="1BFwYRv7wavieyGJnszA-1" vertex="1">
          <mxGeometry x="640" y="280" width="100" height="80" as="geometry" />
        </mxCell>
        <mxCell id="1BFwYRv7wavieyGJnszA-53" value="" style="rounded=1;whiteSpace=wrap;html=1;strokeWidth=3;labelBorderColor=#522845;strokeColor=#522845;fillColor=#F5EAF2;" parent="1BFwYRv7wavieyGJnszA-1" vertex="1">
          <mxGeometry x="360" y="395" width="710" height="295" as="geometry" />
        </mxCell>
        <mxCell id="1BFwYRv7wavieyGJnszA-55" value="&lt;div&gt;&lt;span style=&quot;font-size: 20px&quot;&gt;&lt;b&gt;&lt;font color=&quot;#522845&quot;&gt;Advantages&lt;/font&gt;&lt;/b&gt;&lt;/span&gt;&lt;/div&gt;&lt;div&gt;&lt;br&gt;&lt;/div&gt;" style="text;html=1;strokeColor=none;fillColor=none;align=center;verticalAlign=middle;whiteSpace=wrap;rounded=0;" parent="1BFwYRv7wavieyGJnszA-1" vertex="1">
          <mxGeometry x="480" y="430" width="110" height="20" as="geometry" />
        </mxCell>
        <mxCell id="1BFwYRv7wavieyGJnszA-54" value="&lt;div&gt;&lt;span style=&quot;font-size: 20px&quot;&gt;&lt;b&gt;&lt;font color=&quot;#522845&quot;&gt;Disadvantages&lt;/font&gt;&lt;/b&gt;&lt;/span&gt;&lt;/div&gt;&lt;div&gt;&lt;br&gt;&lt;/div&gt;" style="text;html=1;strokeColor=none;fillColor=none;align=center;verticalAlign=middle;whiteSpace=wrap;rounded=0;" parent="1BFwYRv7wavieyGJnszA-1" vertex="1">
          <mxGeometry x="830" y="430" width="110" height="20" as="geometry" />
        </mxCell>
        <mxCell id="1BFwYRv7wavieyGJnszA-57" value="&lt;font style=&quot;font-size: 17px ; background-color: rgb(245 , 234 , 242)&quot; color=&quot;#522845&quot;&gt;List&lt;/font&gt;" style="text;html=1;strokeColor=none;fillColor=none;align=center;verticalAlign=middle;whiteSpace=wrap;rounded=0;" parent="1BFwYRv7wavieyGJnszA-1" vertex="1">
          <mxGeometry x="480" y="510" width="100" height="80" as="geometry" />
        </mxCell>
        <mxCell id="1BFwYRv7wavieyGJnszA-58" value="&lt;font style=&quot;font-size: 17px ; background-color: rgb(245 , 234 , 242)&quot; color=&quot;#522845&quot;&gt;List&lt;/font&gt;" style="text;html=1;strokeColor=none;fillColor=none;align=center;verticalAlign=middle;whiteSpace=wrap;rounded=0;" parent="1BFwYRv7wavieyGJnszA-1" vertex="1">
          <mxGeometry x="822" y="510" width="100" height="80" as="geometry" />
        </mxCell>
        <mxCell id="1BFwYRv7wavieyGJnszA-59" value="" style="rounded=1;whiteSpace=wrap;html=1;strokeWidth=3;strokeColor=#522845;fillColor=#F5EAF2;" parent="1BFwYRv7wavieyGJnszA-1" vertex="1">
          <mxGeometry x="360" y="710" width="710" height="100" as="geometry" />
        </mxCell>
        <mxCell id="1BFwYRv7wavieyGJnszA-60" value="&lt;div&gt;&lt;span style=&quot;font-size: 20px&quot;&gt;&lt;b&gt;&lt;font color=&quot;#522845&quot;&gt;Skills&lt;/font&gt;&lt;/b&gt;&lt;/span&gt;&lt;/div&gt;" style="text;html=1;strokeColor=none;fillColor=none;align=center;verticalAlign=middle;whiteSpace=wrap;rounded=0;" parent="1BFwYRv7wavieyGJnszA-1" vertex="1">
          <mxGeometry x="400" y="730" width="60" height="20" as="geometry" />
        </mxCell>
        <mxCell id="1BFwYRv7wavieyGJnszA-62" value="&lt;font style=&quot;font-size: 17px ; background-color: rgb(245 , 234 , 242)&quot; color=&quot;#522845&quot;&gt;List&lt;/font&gt;" style="text;html=1;strokeColor=none;fillColor=none;align=center;verticalAlign=middle;whiteSpace=wrap;rounded=0;" parent="1BFwYRv7wavieyGJnszA-1" vertex="1">
          <mxGeometry x="651" y="730" width="100" height="80" as="geometry" />
        </mxCell>
        <mxCell id="1BFwYRv7wavieyGJnszA-63" value="" style="rounded=1;whiteSpace=wrap;html=1;strokeWidth=3;strokeColor=#522845;fillColor=#F5EAF2;" parent="1BFwYRv7wavieyGJnszA-1" vertex="1">
          <mxGeometry x="20" y="770" width="270" height="160" as="geometry" />
        </mxCell>
        <mxCell id="1BFwYRv7wavieyGJnszA-64" value="&lt;font style=&quot;font-size: 20px&quot; color=&quot;#522845&quot;&gt;&lt;b&gt;Interests&lt;/b&gt;&lt;/font&gt;" style="text;html=1;strokeColor=none;fillColor=none;align=center;verticalAlign=middle;whiteSpace=wrap;rounded=0;" parent="1BFwYRv7wavieyGJnszA-1" vertex="1">
          <mxGeometry x="50" y="790" width="100" height="20" as="geometry" />
        </mxCell>
        <mxCell id="1BFwYRv7wavieyGJnszA-102" value="&lt;font style=&quot;font-size: 17px ; background-color: rgb(245 , 234 , 242)&quot; color=&quot;#522845&quot;&gt;Text&lt;/font&gt;" style="text;html=1;strokeColor=none;fillColor=none;align=center;verticalAlign=middle;whiteSpace=wrap;rounded=0;" parent="1BFwYRv7wavieyGJnszA-1" vertex="1">
          <mxGeometry x="100" y="830" width="100" height="80" as="geometry" />
        </mxCell>
        <mxCell id="1BFwYRv7wavieyGJnszA-103" value="&lt;span style=&quot;font-size: 20px&quot;&gt;&lt;b&gt;&lt;font color=&quot;#522845&quot;&gt;Favorite quote&lt;/font&gt;&lt;/b&gt;&lt;/span&gt;" style="text;html=1;strokeColor=none;fillColor=none;align=center;verticalAlign=middle;whiteSpace=wrap;rounded=0;" parent="1BFwYRv7wavieyGJnszA-1" vertex="1">
          <mxGeometry x="400" y="840" width="140" height="20" as="geometry" />
        </mxCell>
        <mxCell id="1BFwYRv7wavieyGJnszA-104" value="&lt;font style=&quot;font-size: 17px&quot; color=&quot;#522845&quot;&gt;&lt;i style=&quot;background-color: rgb(231 , 206 , 225)&quot;&gt;Text&lt;/i&gt;&lt;/font&gt;" style="text;html=1;strokeColor=none;fillColor=none;align=center;verticalAlign=middle;whiteSpace=wrap;rounded=0;" parent="1BFwYRv7wavieyGJnszA-1" vertex="1">
          <mxGeometry x="630" y="870" width="100" height="80" as="geometry" />
        </mxCell>
        <mxCell id="1BFwYRv7wavieyGJnszA-105" value="&lt;font style=&quot;font-size: 21px&quot; color=&quot;#522845&quot;&gt;Footer&lt;/font&gt;" style="whiteSpace=wrap;html=1;shadow=0;dashed=0;fontSize=10;align=center;strokeColor=#1A1A1A;fontColor=#FFFFFF;fillColor=#E7CEE1;" parent="1BFwYRv7wavieyGJnszA-1" vertex="1">
          <mxGeometry y="1000" width="1100" height="50" as="geometry" />
        </mxCell>
        <mxCell id="1BFwYRv7wavieyGJnszA-111" value="" style="endArrow=classic;html=1;" parent="1BFwYRv7wavieyGJnszA-1" edge="1">
          <mxGeometry relative="1" as="geometry">
            <mxPoint x="-180" y="70" as="sourcePoint" />
            <mxPoint x="130" y="70" as="targetPoint" />
          </mxGeometry>
        </mxCell>
        <mxCell id="1BFwYRv7wavieyGJnszA-112" value="&lt;font style=&quot;font-size: 20px&quot;&gt;https://&amp;nbsp;&lt;/font&gt;" style="edgeLabel;resizable=0;html=1;align=center;verticalAlign=middle;" parent="1BFwYRv7wavieyGJnszA-111" connectable="0" vertex="1">
          <mxGeometry relative="1" as="geometry" />
        </mxCell>
        <mxCell id="1BFwYRv7wavieyGJnszA-108" value="" style="endArrow=classic;html=1;" parent="1" edge="1">
          <mxGeometry relative="1" as="geometry">
            <mxPoint x="-740" y="-380" as="sourcePoint" />
            <mxPoint x="-500" y="-380" as="targetPoint" />
            <Array as="points">
              <mxPoint x="-610" y="-380" />
            </Array>
          </mxGeometry>
        </mxCell>
        <mxCell id="1BFwYRv7wavieyGJnszA-109" value="&lt;font style=&quot;font-size: 20px&quot;&gt;Title&lt;/font&gt;" style="edgeLabel;resizable=0;html=1;align=center;verticalAlign=middle;" parent="1BFwYRv7wavieyGJnszA-108" connectable="0" vertex="1">
          <mxGeometry relative="1" as="geometry" />
        </mxCell>
        <mxCell id="1BFwYRv7wavieyGJnszA-120" value="" style="endArrow=classic;html=1;" parent="1" edge="1">
          <mxGeometry relative="1" as="geometry">
            <mxPoint x="-720" y="-250" as="sourcePoint" />
            <mxPoint x="-500" y="-250" as="targetPoint" />
          </mxGeometry>
        </mxCell>
        <mxCell id="1BFwYRv7wavieyGJnszA-121" value="&lt;font style=&quot;font-size: 20px&quot;&gt;Avatar&lt;/font&gt;" style="edgeLabel;resizable=0;html=1;align=center;verticalAlign=middle;" parent="1BFwYRv7wavieyGJnszA-120" connectable="0" vertex="1">
          <mxGeometry relative="1" as="geometry" />
        </mxCell>
        <mxCell id="1BFwYRv7wavieyGJnszA-129" value="" style="labelPosition=right;align=left;strokeWidth=1;shape=mxgraph.mockup.markup.curlyBrace;html=1;shadow=0;dashed=0;strokeColor=#999999;direction=north;fillColor=#C7AF00;" parent="1" vertex="1">
          <mxGeometry x="-630" y="-290" width="20" height="920" as="geometry" />
        </mxCell>
        <mxCell id="1BFwYRv7wavieyGJnszA-131" value="" style="shape=image;html=1;verticalAlign=top;verticalLabelPosition=bottom;labelBackgroundColor=#ffffff;imageAspect=0;aspect=fixed;image=https://cdn4.iconfinder.com/data/icons/developer-set-3/128/sc1-128.png;strokeColor=#998600;strokeWidth=3;fillColor=#C7AF00;rotation=-180;" parent="1" vertex="1">
          <mxGeometry x="540" y="-300" width="98" height="98" as="geometry" />
        </mxCell>
        <mxCell id="1BFwYRv7wavieyGJnszA-133" value="" style="shape=image;html=1;verticalAlign=top;verticalLabelPosition=bottom;labelBackgroundColor=#ffffff;imageAspect=0;aspect=fixed;image=https://cdn4.iconfinder.com/data/icons/developer-set-3/128/sc1-128.png;strokeColor=#998600;strokeWidth=3;fillColor=#C7AF00;rotation=-180;" parent="1" vertex="1">
          <mxGeometry x="570" y="590" width="48" height="48" as="geometry" />
        </mxCell>
        <mxCell id="1BFwYRv7wavieyGJnszA-134" value="" style="labelPosition=right;align=left;strokeWidth=1;shape=mxgraph.mockup.markup.curlyBrace;html=1;shadow=0;dashed=0;strokeColor=#999999;direction=east;fillColor=#C7AF00;rotation=90;labelBorderColor=#000000;" parent="1" vertex="1">
          <mxGeometry x="184.07" y="189.95" width="780" height="20" as="geometry" />
        </mxCell>
        <mxCell id="1BFwYRv7wavieyGJnszA-136" value="&lt;font style=&quot;font-size: 30px&quot;&gt;Header&lt;/font&gt;" style="text;html=1;strokeColor=none;fillColor=none;align=center;verticalAlign=middle;whiteSpace=wrap;rounded=0;" parent="1" vertex="1">
          <mxGeometry x="660" y="-270" width="40" height="20" as="geometry" />
        </mxCell>
        <mxCell id="1BFwYRv7wavieyGJnszA-137" value="&lt;font style=&quot;font-size: 30px&quot;&gt;Main&lt;/font&gt;" style="text;html=1;strokeColor=none;fillColor=none;align=center;verticalAlign=middle;whiteSpace=wrap;rounded=0;" parent="1" vertex="1">
          <mxGeometry x="650" y="189.95" width="40" height="20" as="geometry" />
        </mxCell>
        <mxCell id="1BFwYRv7wavieyGJnszA-138" value="&lt;font style=&quot;font-size: 30px&quot;&gt;Footer&lt;/font&gt;" style="text;html=1;strokeColor=none;fillColor=none;align=center;verticalAlign=middle;whiteSpace=wrap;rounded=0;" parent="1" vertex="1">
          <mxGeometry x="670" y="610" width="40" height="20" as="geometry" />
        </mxCell>
        <mxCell id="1BFwYRv7wavieyGJnszA-139" value="&lt;font style=&quot;font-size: 30px&quot;&gt;Main&lt;/font&gt;" style="text;html=1;strokeColor=none;fillColor=none;align=center;verticalAlign=middle;whiteSpace=wrap;rounded=0;" parent="1" vertex="1">
          <mxGeometry x="-760" y="150" width="40" height="20" as="geometry" />
        </mxCell>
      </root>
    </mxGraphModel>
  </diagram>
</mxfile>
